<svg width="72" height="21" viewBox="0 0 72 21" fill="none" xmlns="http://www.w3.org/2000/svg">
<path d="M47.5131 14.0957C47.5131 15.9255 47.5915 16.9449 49.2906 16.9449H50.101V20.1079L48.1927 20.134C44.3501 20.2124 43.5659 17.9121 43.5659 14.7753V9.495H41.2917V6.51503H43.5659V3.53506L47.5131 1.80981V6.51503H50.2839V9.495H47.5131V14.0957Z" fill="#EDEFEF"/>
<path d="M37.1448 10.5144C36.9357 9.39036 36.1515 8.86756 35.1059 8.86756C34.0603 8.86756 33.3807 9.4165 33.3807 10.0961C33.3807 10.8803 33.8773 11.2986 35.5503 11.743C36.1776 11.926 36.7789 12.0567 37.4062 12.2396C39.8634 12.9193 41.0397 14.1479 41.0397 16.1606C41.0397 18.5655 38.9224 20.4999 35.2105 20.4999C31.8384 20.4999 29.6165 18.9315 29.1982 15.7947H33.1193C33.3022 16.9448 34.008 17.6245 35.2105 17.6245C36.4129 17.6245 37.1187 17.0755 37.1187 16.2913C37.1187 15.2719 36.1776 14.9843 35.315 14.7491C34.6354 14.54 33.9557 14.3831 33.2761 14.174C30.9235 13.5205 29.6426 12.2396 29.6426 10.1484C29.6426 7.82196 31.76 6.04443 35.1059 6.04443C38.4518 6.04443 40.4646 7.69126 40.8567 10.5144H37.1448Z" fill="#EDEFEF"/>
<path d="M21.3719 20.4737C17.5293 20.4737 14.0789 17.8859 14.0789 13.2591C14.0789 8.65841 17.5293 6.09668 21.3719 6.09668C25.1884 6.09668 28.6127 8.65841 28.6127 13.2591C28.6127 17.8859 25.1884 20.4737 21.3719 20.4737ZM17.9737 13.2591C17.9737 15.5071 19.2807 17.3369 21.3719 17.3369C23.437 17.3369 24.744 15.5071 24.744 13.2591C24.744 11.0372 23.437 9.20735 21.3719 9.20735C19.2807 9.20735 17.9737 11.0372 17.9737 13.2591Z" fill="#EDEFEF"/>
<path d="M0 20.0295V2.2277L3.92101 0.5V8.65854C4.67907 7.11628 5.88152 6.09682 7.97272 6.09682C11.4232 6.09682 12.8086 8.39714 12.8086 12.0829V20.0295H8.80921V13.2853C8.80921 11.6124 8.60009 9.65187 6.61344 9.65187C4.91434 9.65187 4.05171 11.1941 4.05171 14.3309V20.0295H0Z" fill="#EDEFEF"/>
<path d="M56.3549 20.0295H51.9895L58.6552 1.36548H63.9094L70.5228 20.0295H66.079L64.589 15.5334H57.871L56.3549 20.0295ZM58.9428 12.2398H63.5173L61.2431 5.23421H61.1908L58.9428 12.2398Z" fill="#EDEFEF"/>
<path d="M67.6753 8.22626L71.8577 20.0295L71.8577 1.36548H67.6753V8.22626Z" fill="#EDEFEF"/>
</svg>
